<svg xmlns="http://www.w3.org/2000/svg" xmlns:xlink="http://www.w3.org/1999/xlink" width="1500" zoomAndPan="magnify" viewBox="0 0 1125 374.999991" height="500" preserveAspectRatio="xMidYMid meet" version="1.0"><defs><g/><clipPath id="4fe2850ecf"><path d="M 0 228 L 140 228 L 140 364.128906 L 0 364.128906 Z M 0 228 " clip-rule="nonzero"/></clipPath><clipPath id="69196a0223"><path d="M 168 10.878906 L 303 10.878906 L 303 146 L 168 146 Z M 168 10.878906 " clip-rule="nonzero"/></clipPath></defs><rect x="-112.5" width="1350" fill="#ffffff" y="-37.499999" height="449.999989" fill-opacity="1"/><rect x="-112.5" width="1350" fill="#ffffff" y="-37.499999" height="449.999989" fill-opacity="1"/><rect x="-112.5" width="1350" fill="#ffffff" y="-37.499999" height="449.999989" fill-opacity="1"/><g clip-path="url(#4fe2850ecf)"><path fill="#efefef" d="M 0.160156 364.128906 L 69.832031 228.113281 L 139.503906 364.128906 Z M 51.011719 333.019531 L 88.648438 333.019531 L 69.832031 296.285156 Z M 51.011719 333.019531 " fill-opacity="1" fill-rule="evenodd"/></g><path fill="#f66b0e" d="M 134.761719 105.632812 L 134.761719 137.871094 L 83.523438 137.871094 L 83.523438 189.167969 L 51.320312 189.167969 L 51.320312 137.871094 L 0.0859375 137.871094 L 0.0859375 105.632812 L 51.320312 105.632812 L 51.320312 54.339844 L 83.523438 54.339844 L 83.523438 105.632812 Z M 134.761719 105.632812 " fill-opacity="1" fill-rule="evenodd"/><path fill="#205375" d="M 207.890625 180.234375 C 246.375 180.234375 277.570312 211.46875 277.570312 249.992188 C 277.570312 288.519531 246.375 319.753906 207.890625 319.753906 C 169.410156 319.753906 138.214844 288.519531 138.214844 249.992188 C 138.214844 211.46875 169.410156 180.234375 207.890625 180.234375 Z M 207.890625 212.472656 C 187.179688 212.472656 170.410156 229.261719 170.410156 249.996094 C 170.410156 270.726562 187.179688 287.519531 207.890625 287.519531 C 228.601562 287.519531 245.371094 270.726562 245.371094 249.996094 C 245.371094 229.261719 228.601562 212.472656 207.890625 212.472656 Z M 207.890625 212.472656 " fill-opacity="1" fill-rule="evenodd"/><g clip-path="url(#69196a0223)"><path fill="#efefef" d="M 168.238281 10.878906 L 302.914062 10.878906 L 302.914062 145.710938 L 168.242188 145.710938 L 168.242188 10.878906 Z M 200.4375 43.113281 L 200.4375 113.476562 L 270.71875 113.476562 L 270.71875 43.113281 Z M 200.4375 43.113281 " fill-opacity="1" fill-rule="evenodd"/></g><g fill="#efefef" fill-opacity="1"><g transform="translate(379.36868, 241.675987)"><g><path d="M 80.636719 -106.628906 C 80.636719 -115.839844 77.566406 -122.390625 73.472656 -126.277344 C 66.925781 -132.214844 56.28125 -132.828125 45.433594 -132.828125 L 12.894531 -132.828125 L 12.894531 0 L 27.835938 0 L 27.835938 -47.890625 L 42.773438 -47.890625 C 54.851562 -47.890625 64.058594 -50.347656 70.609375 -55.054688 C 77.363281 -59.761719 80.636719 -67.742188 80.636719 -79 Z M 66.105469 -104.175781 L 66.105469 -80.023438 C 66.105469 -72.859375 63.855469 -67.742188 59.761719 -64.878906 C 55.667969 -61.808594 50.550781 -60.375 44.617188 -60.375 L 27.628906 -60.375 L 27.628906 -120.34375 L 44.414062 -120.34375 C 55.054688 -120.34375 66.105469 -118.5 66.105469 -104.175781 Z M 66.105469 -104.175781 "/></g></g></g><g fill="#efefef" fill-opacity="1"><g transform="translate(466.961876, 241.675987)"><g><path d="M 25.789062 0 L 25.789062 -143.265625 L 12.074219 -143.265625 L 12.074219 0 Z M 25.789062 0 "/></g></g></g><g fill="#efefef" fill-opacity="1"><g transform="translate(504.823437, 241.675987)"><g><path d="M 70.609375 0 L 70.609375 -69.996094 C 70.609375 -82.683594 68.765625 -91.074219 65.082031 -95.167969 C 61.398438 -99.058594 53.210938 -101.105469 40.933594 -101.105469 C 32.746094 -101.105469 23.535156 -100.492188 13.304688 -99.261719 L 13.304688 -85.753906 C 22.71875 -87.390625 31.3125 -88.210938 38.886719 -88.210938 C 45.84375 -88.210938 50.550781 -87.1875 53.007812 -85.34375 C 55.464844 -83.503906 56.898438 -79.820312 56.898438 -74.292969 L 56.898438 -58.535156 L 34.589844 -58.535156 C 23.945312 -58.535156 16.988281 -56.488281 13.304688 -52.394531 C 9.621094 -48.097656 7.777344 -40.523438 7.777344 -29.472656 C 7.777344 -16.78125 9.621094 -8.390625 13.507812 -4.296875 C 17.601562 0 24.558594 2.046875 34.792969 2.046875 C 48.710938 2.046875 56.078125 -1.84375 57.304688 -9.414062 L 57.304688 0 Z M 21.285156 -28.859375 C 21.285156 -45.027344 22.921875 -47.074219 35.40625 -47.074219 L 56.898438 -47.074219 L 56.898438 -20.058594 C 56.898438 -9.621094 45.027344 -10.027344 37.25 -10.027344 L 34.382812 -10.027344 C 23.535156 -10.027344 21.285156 -14.734375 21.285156 -28.859375 Z M 21.285156 -28.859375 "/></g></g></g><g fill="#efefef" fill-opacity="1"><g transform="translate(587.50485, 241.675987)"><g><path d="M 69.789062 -99.058594 L 55.667969 -99.058594 L 37.042969 -18.214844 L 36.636719 -18.214844 L 15.964844 -99.058594 L 1.023438 -99.058594 L 29.675781 1.433594 L 18.011719 42.570312 L 32.335938 42.570312 Z M 69.789062 -99.058594 "/></g></g></g><g fill="#efefef" fill-opacity="1"><g transform="translate(658.111528, 241.675987)"><g/></g></g><g fill="#efefef" fill-opacity="1"><g transform="translate(693.517199, 241.675987)"><g><path d="M 119.320312 0 L 119.320312 -132.828125 L 97.828125 -132.828125 L 67.539062 -22.105469 L 67.128906 -22.308594 L 35.203125 -132.828125 L 12.894531 -132.828125 L 12.894531 0 L 26.195312 0 L 26.195312 -112.359375 L 27.015625 -112.359375 L 59.964844 0 L 73.472656 0 L 105.402344 -112.359375 L 106.222656 -112.359375 L 106.222656 0 Z M 119.320312 0 "/></g></g></g><g fill="#efefef" fill-opacity="1"><g transform="translate(825.725582, 241.675987)"><g><path d="M 25.789062 -115.636719 L 25.789062 -134.875 L 12.074219 -134.875 L 12.074219 -115.636719 Z M 25.789062 0 L 25.789062 -99.058594 L 12.074219 -99.058594 L 12.074219 0 Z M 25.789062 0 "/></g></g></g><g fill="#efefef" fill-opacity="1"><g transform="translate(863.587143, 241.675987)"><g><path d="M 50.144531 -101.105469 C 35.40625 -101.105469 27.21875 -96.398438 25.789062 -86.984375 L 25.789062 -99.058594 L 12.074219 -99.058594 L 12.074219 0 L 25.789062 0 L 25.789062 -71.632812 C 25.789062 -77.976562 27.21875 -82.273438 29.882812 -84.527344 C 32.746094 -86.777344 38.066406 -88.003906 46.253906 -88.003906 C 49.734375 -88.003906 52.597656 -87.597656 54.851562 -86.777344 C 60.171875 -84.730469 62.21875 -80.023438 62.21875 -71.632812 L 62.21875 0 L 75.929688 0 L 75.929688 -72.65625 C 75.929688 -94.351562 67.742188 -101.105469 50.144531 -101.105469 Z M 50.144531 -101.105469 "/></g></g></g><g fill="#efefef" fill-opacity="1"><g transform="translate(951.589665, 241.675987)"><g><path d="M 39.296875 -101.105469 C 20.464844 -101.105469 9.210938 -95.78125 9.210938 -73.066406 L 9.210938 -29.472656 C 9.210938 -17.398438 11.460938 -9.210938 15.757812 -4.707031 C 20.261719 -0.203125 27.835938 2.046875 38.476562 2.046875 C 46.253906 2.046875 52.191406 0.613281 56.691406 -2.25 C 61.195312 -4.910156 63.445312 -8.1875 63.445312 -11.664062 L 63.445312 0 L 76.953125 0 L 76.953125 -143.265625 L 63.035156 -143.265625 L 63.035156 -113.589844 C 63.035156 -108.0625 63.242188 -99.671875 63.445312 -88.414062 L 63.035156 -88.414062 C 62.832031 -98.648438 48.097656 -101.105469 39.296875 -101.105469 Z M 41.546875 -10.640625 C 30.289062 -10.640625 22.921875 -12.6875 22.921875 -25.992188 L 22.921875 -74.90625 C 22.921875 -80.433594 24.152344 -84.117188 26.605469 -85.753906 C 29.0625 -87.390625 34.589844 -88.210938 42.773438 -88.210938 C 56.28125 -88.210938 63.035156 -83.707031 63.035156 -74.90625 L 63.035156 -25.992188 C 63.035156 -12.484375 53.417969 -10.640625 41.546875 -10.640625 Z M 41.546875 -10.640625 "/></g></g></g><g fill="#efefef" fill-opacity="1"><g transform="translate(1039.182861, 241.675987)"><g><path d="M 31.3125 -44.414062 L 39.703125 -44.414062 C 47.890625 -44.414062 53.417969 -42.570312 53.417969 -32.746094 L 53.417969 -22.71875 C 53.417969 -17.804688 51.984375 -14.53125 48.914062 -13.097656 C 45.84375 -11.460938 41.136719 -10.640625 34.996094 -10.640625 C 30.085938 -10.640625 21.488281 -11.871094 9.210938 -14.53125 L 9.210938 -0.410156 C 18.214844 1.226562 26.8125 2.046875 34.792969 2.046875 C 45.230469 2.046875 53.210938 0 58.738281 -4.09375 C 64.265625 -8.1875 67.128906 -15.554688 67.128906 -26.195312 L 67.128906 -34.792969 C 67.128906 -50.347656 59.351562 -58.125 43.59375 -58.125 L 34.996094 -58.125 C 25.992188 -58.125 21.285156 -61.398438 21.285156 -68.152344 L 21.285156 -76.542969 C 21.285156 -81.046875 22.71875 -84.320312 25.171875 -86.164062 C 27.835938 -88.003906 32.949219 -89.027344 40.320312 -89.027344 C 46.867188 -89.027344 54.644531 -88.003906 63.445312 -86.164062 L 63.445312 -99.46875 C 50.757812 -100.492188 43.390625 -101.105469 40.933594 -101.105469 C 18.828125 -101.105469 7.777344 -93.328125 7.777344 -77.773438 L 7.777344 -68.5625 C 7.777344 -51.574219 17.601562 -44.414062 31.3125 -44.414062 Z M 31.3125 -44.414062 "/></g></g></g><g fill="#efefef" fill-opacity="1"><g transform="translate(459.012895, 337.183318)"><g><path d="M 4.90625 -2.582031 C 3.71875 -2.582031 2.375 -2.839844 0.773438 -3.40625 L 0.773438 -0.0507812 C 1.753906 0.308594 3.253906 0.515625 5.371094 0.515625 C 7.902344 0.515625 9.65625 0 10.742188 -1.03125 C 11.824219 -2.066406 12.339844 -4.183594 12.339844 -7.382812 L 12.339844 -33.511719 L 8.625 -33.511719 L 8.625 -7.175781 C 8.625 -3.304688 7.847656 -2.582031 4.90625 -2.582031 Z M 4.90625 -2.582031 "/></g></g></g><g fill="#efefef" fill-opacity="1"><g transform="translate(491.948584, 337.183318)"><g><path d="M 13.117188 -2.839844 C 9.5 -2.839844 6.867188 -3.925781 6.867188 -8.625 L 6.867188 -33.511719 L 3.253906 -33.511719 L 3.253906 -8.570312 C 3.253906 -1.289062 7.640625 0.515625 13.0625 0.515625 C 19.621094 0.515625 22.875 -2.53125 22.875 -8.570312 L 22.875 -33.511719 L 19.3125 -33.511719 L 19.3125 -8.625 C 19.3125 -3.925781 16.78125 -2.839844 13.117188 -2.839844 Z M 13.117188 -2.839844 "/></g></g></g><g fill="#efefef" fill-opacity="1"><g transform="translate(535.462858, 337.183318)"><g><path d="M 20.550781 0 L 20.550781 -3.511719 L 7.023438 -3.511719 L 7.023438 -15.542969 L 18.847656 -15.542969 L 18.847656 -19.054688 L 7.023438 -19.054688 L 7.023438 -30 L 20.140625 -30 L 20.140625 -33.511719 L 3.253906 -33.511719 L 3.253906 0 Z M 20.550781 0 "/></g></g></g><g fill="#efefef" fill-opacity="1"><g transform="translate(575.261702, 337.183318)"><g><path d="M 22.71875 -29.332031 L 22.71875 -33.203125 C 20.035156 -33.769531 17.144531 -34.027344 14.046875 -34.027344 C 12.753906 -34.027344 11.566406 -33.925781 10.378906 -33.667969 C 6.351562 -32.839844 2.480469 -30.671875 2.480469 -24.425781 L 2.480469 -8.570312 C 2.480469 -7.074219 2.738281 -5.785156 3.253906 -4.648438 C 5.058594 -0.671875 9.347656 0.515625 14.046875 0.515625 C 16.886719 0.515625 19.933594 0 23.339844 -1.03125 L 23.339844 -19.054688 L 13.941406 -19.054688 L 15.285156 -15.542969 L 19.828125 -15.542969 L 19.828125 -3.820312 C 17.867188 -3.203125 16.007812 -2.890625 14.304688 -2.890625 C 13.324219 -2.890625 12.394531 -2.996094 11.566406 -3.148438 C 8.984375 -3.613281 6.195312 -4.855469 6.195312 -8.675781 L 6.195312 -24.476562 C 6.195312 -28.554688 8.828125 -30.570312 14.148438 -30.570312 C 16.164062 -30.570312 21.066406 -29.847656 22.71875 -29.332031 Z M 22.71875 -29.332031 "/></g></g></g><g fill="#efefef" fill-opacity="1"><g transform="translate(618.414786, 337.183318)"><g><path d="M 24.683594 0 L 14.921875 -33.511719 L 10.585938 -33.511719 L 0.566406 0 L 4.285156 0 L 7.125 -10.171875 L 17.917969 -10.171875 L 20.757812 0 Z M 16.988281 -13.632812 L 8.105469 -13.632812 L 12.339844 -28.761719 L 12.703125 -28.761719 Z M 16.988281 -13.632812 "/></g></g></g><g fill="#efefef" fill-opacity="1"><g transform="translate(687.279109, 337.183318)"><g><path d="M 22.308594 -33.511719 L 18.023438 -33.511719 L 11.308594 -17.761719 L 4.597656 -33.511719 L 0.308594 -33.511719 L 9.398438 -13.527344 L 9.398438 0 L 13.167969 0 L 13.167969 -13.683594 Z M 22.308594 -33.511719 "/></g></g></g><g fill="#efefef" fill-opacity="1"><g transform="translate(727.23277, 337.183318)"><g/></g></g><g fill="#efefef" fill-opacity="1"><g transform="translate(753.511644, 337.183318)"><g><path d="M 24.683594 0 L 14.921875 -33.511719 L 10.585938 -33.511719 L 0.566406 0 L 4.285156 0 L 7.125 -10.171875 L 17.917969 -10.171875 L 20.757812 0 Z M 16.988281 -13.632812 L 8.105469 -13.632812 L 12.339844 -28.761719 L 12.703125 -28.761719 Z M 16.988281 -13.632812 "/></g></g></g><g fill="#efefef" fill-opacity="1"><g transform="translate(796.097093, 337.183318)"><g><path d="M 20.34375 -26.902344 C 20.34375 -29.226562 19.570312 -30.878906 18.539062 -31.859375 C 16.886719 -33.359375 14.199219 -33.511719 11.464844 -33.511719 L 3.253906 -33.511719 L 3.253906 0 L 7.023438 0 L 7.023438 -12.082031 L 10.792969 -12.082031 C 13.839844 -12.082031 16.164062 -12.703125 17.816406 -13.890625 C 19.519531 -15.078125 20.34375 -17.09375 20.34375 -19.933594 Z M 16.679688 -26.285156 L 16.679688 -20.191406 C 16.679688 -18.382812 16.109375 -17.09375 15.078125 -16.367188 C 14.046875 -15.59375 12.753906 -15.234375 11.257812 -15.234375 L 6.972656 -15.234375 L 6.972656 -30.363281 L 11.207031 -30.363281 C 13.890625 -30.363281 16.679688 -29.898438 16.679688 -26.285156 Z M 16.679688 -26.285156 "/></g></g></g><g fill="#efefef" fill-opacity="1"><g transform="translate(835.534754, 337.183318)"><g><path d="M 20.914062 -21.171875 L 20.914062 -26.953125 C 20.914062 -29.640625 20.242188 -31.394531 18.847656 -32.273438 C 17.503906 -33.101562 15.234375 -33.511719 12.082031 -33.511719 L 3.253906 -33.511719 L 3.253906 0 L 7.023438 0 L 7.023438 -14.304688 L 10.636719 -14.304688 L 17.867188 0 L 22.460938 0 L 14.40625 -14.921875 C 17.761719 -14.921875 20.914062 -16.832031 20.914062 -21.171875 Z M 11.929688 -17.609375 L 7.023438 -17.609375 L 7.023438 -30.207031 L 12.289062 -30.207031 C 15.542969 -30.207031 17.144531 -28.96875 17.144531 -26.4375 L 17.144531 -21.792969 C 17.144531 -18.125 14.976562 -17.609375 11.929688 -17.609375 Z M 11.929688 -17.609375 "/></g></g></g><g fill="#efefef" fill-opacity="1"><g transform="translate(876.572102, 337.183318)"><g><path d="M 20.550781 0 L 20.550781 -3.511719 L 7.023438 -3.511719 L 7.023438 -15.542969 L 18.847656 -15.542969 L 18.847656 -19.054688 L 7.023438 -19.054688 L 7.023438 -30 L 20.140625 -30 L 20.140625 -33.511719 L 3.253906 -33.511719 L 3.253906 0 Z M 20.550781 0 "/></g></g></g><g fill="#efefef" fill-opacity="1"><g transform="translate(916.370933, 337.183318)"><g><path d="M 24.734375 0 L 24.734375 -33.511719 L 21.480469 -33.511719 L 21.480469 -5.835938 L 7.796875 -33.511719 L 3.253906 -33.511719 L 3.253906 0 L 6.558594 0 L 6.558594 -28.140625 L 20.242188 0 Z M 24.734375 0 "/></g></g></g><g fill="#efefef" fill-opacity="1"><g transform="translate(961.691315, 337.183318)"><g><path d="M 23.804688 -23.910156 C 23.804688 -30.3125 20.292969 -33.511719 13.269531 -33.511719 L 3.253906 -33.511719 L 3.253906 0 L 13.269531 0 C 20.292969 0 23.804688 -3.046875 23.804688 -9.089844 Z M 20.242188 -23.960938 L 20.242188 -9.191406 C 20.242188 -5.320312 17.816406 -3.40625 13.011719 -3.40625 L 7.023438 -3.40625 L 7.023438 -30.054688 L 13.21875 -30.054688 C 16.988281 -30.054688 20.242188 -29.070312 20.242188 -23.960938 Z M 20.242188 -23.960938 "/></g></g></g><g fill="#efefef" fill-opacity="1"><g transform="translate(1005.30879, 337.183318)"><g><path d="M 20.550781 0 L 20.550781 -3.511719 L 7.023438 -3.511719 L 7.023438 -15.542969 L 18.847656 -15.542969 L 18.847656 -19.054688 L 7.023438 -19.054688 L 7.023438 -30 L 20.140625 -30 L 20.140625 -33.511719 L 3.253906 -33.511719 L 3.253906 0 Z M 20.550781 0 "/></g></g></g></svg>